<svg id="svg" version="1.1" width="400" height="375.6457564575645" viewBox="0 0 400 375.6457564575645" xmlns="http://www.w3.org/2000/svg" xmlns:xlink="http://www.w3.org/1999/xlink"><g id="svgg"><path id="path0" d="M265.129 19.512 C 263.000 20.076,261.051 21.365,258.672 23.783 L 256.273 26.220 255.940 30.176 C 255.523 35.117,255.490 51.274,255.889 54.982 C 256.617 61.755,261.189 65.683,268.345 65.683 C 275.891 65.683,279.882 61.385,280.422 52.679 C 280.704 48.136,282.361 46.410,284.443 48.491 C 285.626 49.674,285.057 153.135,283.856 155.234 C 283.571 155.733,283.395 157.461,283.395 159.766 C 283.395 162.244,283.209 163.936,282.841 164.817 C 282.537 165.546,282.288 166.957,282.288 167.954 C 282.288 168.950,282.039 170.362,281.734 171.090 C 281.430 171.819,281.176 172.934,281.170 173.569 C 281.149 175.804,277.960 185.962,276.231 189.299 C 275.758 190.212,275.263 191.418,275.131 191.978 C 274.798 193.397,269.976 203.060,268.874 204.519 C 268.375 205.180,267.486 206.716,266.897 207.934 C 265.817 210.170,263.390 213.896,262.571 214.576 C 262.327 214.779,261.188 216.389,260.040 218.155 C 258.892 219.921,257.631 221.538,257.238 221.748 C 256.845 221.959,255.660 223.318,254.604 224.770 C 252.428 227.761,244.172 236.132,241.242 238.317 C 240.173 239.115,238.801 240.302,238.192 240.955 C 237.133 242.092,236.319 242.704,229.933 247.167 C 224.718 250.811,222.190 252.364,218.560 254.154 C 216.572 255.135,212.537 257.163,209.594 258.660 C 206.651 260.158,203.147 261.672,201.807 262.025 C 200.467 262.378,198.557 263.080,197.563 263.585 C 196.570 264.091,194.843 264.699,193.727 264.937 C 192.611 265.176,190.701 265.708,189.483 266.121 C 188.266 266.534,186.688 267.030,185.978 267.223 C 185.268 267.417,184.188 267.742,183.579 267.947 C 182.363 268.355,179.089 268.890,175.092 269.335 C 173.672 269.493,172.042 269.815,171.470 270.051 C 170.866 270.300,168.455 270.480,165.704 270.480 C 162.336 270.480,160.595 270.639,159.651 271.033 C 157.895 271.767,152.806 271.767,151.050 271.033 C 150.105 270.638,148.361 270.480,144.962 270.480 C 141.562 270.480,139.818 270.321,138.873 269.926 C 138.144 269.622,136.863 269.373,136.025 269.372 C 134.295 269.372,129.375 268.412,128.383 267.880 C 128.020 267.686,127.278 267.528,126.734 267.528 C 125.754 267.528,118.833 265.397,113.838 263.558 C 112.417 263.035,110.258 262.261,109.041 261.839 C 104.215 260.164,87.132 250.795,84.129 248.177 C 83.417 247.556,81.782 246.384,80.497 245.572 C 79.211 244.760,77.180 243.224,75.983 242.159 C 74.786 241.093,73.614 240.221,73.379 240.221 C 72.765 240.221,57.670 225.161,56.736 223.616 C 56.306 222.906,55.425 221.726,54.779 220.994 C 54.132 220.262,53.012 218.655,52.291 217.424 C 51.569 216.193,50.651 214.857,50.250 214.457 C 49.849 214.056,49.068 212.923,48.513 211.938 C 47.958 210.953,47.049 209.483,46.495 208.672 C 45.270 206.880,37.638 191.531,37.638 190.859 C 37.638 190.596,37.251 189.598,36.777 188.641 C 35.781 186.629,34.757 183.773,33.441 179.336 C 32.929 177.611,32.086 174.788,31.567 173.063 C 31.048 171.338,30.625 169.616,30.626 169.238 C 30.627 168.859,30.360 167.697,30.034 166.655 C 29.707 165.613,29.208 164.013,28.925 163.100 C 28.515 161.778,28.410 157.927,28.411 144.233 C 28.413 129.771,28.325 126.816,27.860 125.703 C 27.380 124.555,27.306 119.363,27.306 86.754 C 27.306 45.739,27.214 47.536,29.282 48.199 C 29.718 48.339,30.651 48.585,31.355 48.745 C 32.942 49.106,33.579 49.936,33.580 51.639 C 33.581 57.004,36.795 62.828,40.803 64.725 C 43.305 65.910,48.652 66.104,50.664 65.083 C 54.863 62.952,56.505 61.234,57.930 57.486 C 58.919 54.884,59.072 33.889,58.118 31.607 C 57.814 30.878,57.563 29.654,57.561 28.886 C 57.554 26.181,54.860 22.712,50.923 20.338 C 48.959 19.155,43.463 19.211,41.039 20.440 C 36.267 22.858,33.579 27.832,33.579 34.247 C 33.579 37.446,33.183 37.638,26.586 37.638 C 20.583 37.638,19.434 37.907,18.902 39.439 C 17.248 44.195,17.343 40.476,17.343 100.166 C 17.343 143.440,17.445 156.320,17.792 156.943 C 18.039 157.386,18.352 159.493,18.487 161.624 C 18.622 163.755,18.910 166.162,19.126 166.974 C 19.343 167.786,19.702 169.613,19.924 171.033 C 20.306 173.477,20.551 174.488,21.936 179.336 C 23.317 184.174,27.170 195.017,28.229 197.048 C 28.705 197.961,29.794 200.337,30.649 202.328 C 31.504 204.319,32.561 206.478,32.998 207.125 C 33.436 207.773,34.584 209.714,35.549 211.439 C 37.445 214.826,38.155 215.940,41.448 220.697 C 45.592 226.680,46.196 227.489,47.815 229.220 C 48.712 230.180,49.446 231.140,49.446 231.354 C 49.446 231.884,64.025 246.492,65.867 247.806 C 66.679 248.386,68.434 249.864,69.768 251.090 C 71.102 252.317,72.913 253.736,73.793 254.244 C 74.673 254.751,76.229 255.872,77.250 256.734 C 78.271 257.597,79.304 258.303,79.545 258.303 C 79.786 258.303,80.184 258.544,80.428 258.839 C 81.683 260.350,100.872 270.447,105.535 272.049 C 106.448 272.363,108.773 273.239,110.701 273.997 C 114.584 275.521,119.591 277.034,122.140 277.451 C 123.054 277.601,124.382 277.909,125.092 278.136 C 127.129 278.788,130.182 279.336,131.774 279.336 C 132.577 279.336,133.830 279.585,134.559 279.889 C 135.332 280.212,137.022 280.443,138.618 280.443 C 140.214 280.443,141.904 280.673,142.677 280.996 C 143.551 281.362,145.241 281.550,147.647 281.550 C 152.961 281.550,152.768 281.223,152.768 290.176 C 152.768 295.698,152.894 297.629,153.321 298.652 C 153.687 299.527,153.875 301.217,153.875 303.633 C 153.875 306.049,154.062 307.740,154.428 308.615 C 154.732 309.343,154.982 310.786,154.982 311.821 C 154.982 312.855,155.163 314.040,155.384 314.453 C 155.605 314.866,155.936 316.263,156.119 317.557 C 157.839 329.705,169.579 348.658,179.192 354.807 C 180.300 355.516,181.299 356.336,181.411 356.629 C 181.524 356.922,182.390 357.529,183.336 357.979 C 184.281 358.428,185.728 359.271,186.551 359.851 C 187.373 360.431,189.117 361.299,190.425 361.778 C 191.734 362.258,193.982 363.149,195.420 363.758 C 196.859 364.367,199.018 365.067,200.217 365.313 C 202.475 365.777,204.362 366.285,207.614 367.303 C 208.656 367.630,210.696 367.897,212.146 367.897 C 213.656 367.897,215.350 368.133,216.109 368.450 C 218.009 369.244,230.330 369.244,232.231 368.450 C 233.014 368.123,234.702 367.897,236.359 367.897 C 237.901 367.897,239.513 367.709,239.942 367.480 C 240.370 367.250,241.646 366.928,242.777 366.763 C 249.955 365.718,259.133 362.091,265.313 357.857 C 266.584 356.986,267.976 356.036,268.406 355.746 C 268.836 355.455,270.018 354.443,271.033 353.495 C 272.048 352.548,273.485 351.412,274.226 350.970 C 275.605 350.150,278.229 347.488,278.229 346.909 C 278.229 346.732,279.101 345.590,280.166 344.370 C 282.869 341.276,287.464 334.306,290.037 329.396 C 291.552 326.504,292.205 326.090,295.671 325.823 C 297.342 325.694,299.176 325.394,299.747 325.156 C 300.319 324.918,301.385 324.723,302.116 324.723 C 302.902 324.723,304.223 324.285,305.348 323.650 C 306.394 323.060,308.116 322.319,309.175 322.005 C 310.234 321.690,311.551 321.084,312.100 320.658 C 312.650 320.231,314.103 319.229,315.329 318.430 C 319.910 315.447,327.675 305.694,327.675 302.924 C 327.675 302.686,328.068 301.557,328.549 300.415 C 331.421 293.589,332.095 281.597,330.023 274.170 C 328.782 269.721,327.159 265.524,326.213 264.315 C 325.769 263.748,324.879 262.430,324.234 261.385 C 321.490 256.937,320.127 255.219,318.188 253.761 C 317.056 252.910,315.532 251.698,314.800 251.067 C 311.488 248.212,304.259 245.385,296.474 243.898 C 294.061 243.438,284.863 243.621,280.996 244.207 C 277.541 244.730,271.378 247.365,268.861 249.396 C 268.072 250.033,267.274 250.554,267.088 250.554 C 266.375 250.554,259.284 257.839,257.763 260.135 C 255.508 263.538,253.328 268.259,252.220 272.140 C 251.698 273.967,251.027 276.231,250.728 277.171 C 250.055 279.290,249.946 292.224,250.592 293.429 C 250.816 293.848,251.137 295.041,251.307 296.080 C 253.093 307.052,265.901 321.302,276.199 323.777 C 279.477 324.564,279.327 327.025,275.692 332.103 C 274.748 333.423,273.541 335.166,273.010 335.978 C 267.651 344.171,247.299 356.780,239.367 356.821 C 238.795 356.824,237.965 357.022,237.522 357.261 C 234.641 358.814,214.816 358.805,211.909 357.250 C 211.474 357.017,210.546 356.827,209.847 356.827 C 209.147 356.827,207.434 356.394,206.040 355.864 C 204.646 355.335,202.758 354.675,201.845 354.397 C 199.845 353.788,191.628 349.654,190.590 348.735 C 190.185 348.375,188.774 347.434,187.456 346.642 C 185.019 345.179,178.520 339.030,176.575 336.347 C 175.986 335.535,175.049 334.373,174.493 333.764 C 172.219 331.277,166.052 317.274,166.052 314.600 C 166.052 314.129,165.803 313.147,165.498 312.419 C 165.194 311.690,164.945 310.112,164.945 308.913 C 164.945 307.714,164.696 306.136,164.391 305.407 C 163.362 302.944,163.594 284.078,164.668 282.875 C 166.117 281.253,168.925 280.443,173.101 280.443 C 175.220 280.443,177.146 280.258,177.607 280.011 C 178.051 279.774,179.659 279.451,181.181 279.293 C 186.990 278.693,186.774 278.738,194.280 276.552 C 196.107 276.020,198.228 275.350,198.993 275.062 C 199.758 274.774,200.719 274.539,201.129 274.539 C 201.539 274.539,202.560 274.189,203.399 273.761 C 204.237 273.333,205.767 272.683,206.798 272.317 C 211.586 270.615,213.696 269.746,216.605 268.282 C 220.683 266.228,226.263 263.019,229.787 260.701 C 231.330 259.686,233.668 258.159,234.983 257.307 C 236.297 256.455,237.806 255.358,238.336 254.869 C 238.866 254.379,239.839 253.671,240.498 253.294 C 241.158 252.917,241.697 252.493,241.697 252.352 C 241.697 252.210,242.901 251.185,244.373 250.073 C 247.145 247.978,263.469 231.948,263.469 231.320 C 263.469 231.125,264.183 230.183,265.055 229.228 C 265.928 228.272,266.950 226.993,267.326 226.384 C 267.702 225.775,268.503 224.696,269.105 223.985 C 270.765 222.028,276.364 213.370,277.459 211.066 C 277.991 209.947,278.855 208.453,279.380 207.745 C 280.349 206.438,282.417 202.064,285.222 195.387 C 286.074 193.358,287.156 190.950,287.625 190.037 C 288.093 189.124,288.758 187.235,289.101 185.840 C 289.444 184.445,289.857 182.951,290.018 182.519 C 290.670 180.771,291.509 177.506,292.054 174.597 C 292.371 172.903,292.794 171.212,292.994 170.839 C 293.194 170.465,293.358 169.562,293.358 168.832 C 293.358 168.101,293.607 166.908,293.911 166.179 C 294.232 165.412,294.465 163.720,294.465 162.156 C 294.465 160.672,294.668 158.990,294.917 158.419 C 295.947 156.050,296.629 60.034,295.715 46.125 C 295.194 38.200,294.624 37.638,287.102 37.638 C 280.955 37.638,280.776 37.519,280.434 33.171 C 279.707 23.916,272.566 17.543,265.129 19.512 M46.799 34.047 C 47.801 37.167,47.925 52.225,46.956 53.193 C 45.573 54.573,44.649 49.807,44.649 41.288 C 44.649 30.941,45.202 29.078,46.799 34.047 M269.149 31.949 C 269.666 33.296,269.391 52.602,268.844 53.343 C 267.450 55.232,266.878 51.993,266.560 40.406 C 266.347 32.662,266.559 31.365,268.033 31.365 C 268.523 31.365,269.026 31.628,269.149 31.949 M109.594 47.215 C 109.087 47.387,107.540 47.544,106.157 47.565 C 104.773 47.585,103.299 47.785,102.881 48.009 C 102.462 48.233,101.269 48.551,100.230 48.716 C 97.325 49.177,93.005 50.495,90.959 51.544 C 79.698 57.319,79.327 57.535,76.994 59.686 C 76.059 60.549,75.160 61.255,74.997 61.255 C 72.709 61.255,61.249 75.467,57.591 82.841 C 53.279 91.534,52.656 93.529,51.708 101.670 C 51.542 103.096,51.214 104.622,50.980 105.059 C 50.314 106.303,50.413 116.548,51.107 118.209 C 51.411 118.937,51.661 120.401,51.661 121.460 C 51.661 127.299,56.491 139.803,61.851 147.841 C 63.882 150.887,87.555 174.934,90.959 177.410 C 91.771 178.001,94.737 180.765,97.551 183.553 C 100.365 186.341,103.178 188.933,103.802 189.313 C 104.427 189.693,107.386 192.419,110.377 195.371 C 113.369 198.323,116.019 200.738,116.267 200.738 C 116.514 200.738,119.323 203.312,122.509 206.458 C 125.695 209.603,128.513 212.177,128.771 212.177 C 129.029 212.177,132.565 215.509,136.628 219.581 C 140.691 223.653,145.146 227.828,146.527 228.858 C 147.908 229.889,149.120 230.943,149.219 231.201 C 149.492 231.913,155.353 236.219,156.856 236.811 C 158.764 237.563,160.986 236.887,162.902 234.971 C 163.721 234.151,164.906 233.130,165.535 232.700 C 167.459 231.387,172.206 227.309,176.147 223.584 C 178.205 221.639,180.470 219.658,181.181 219.182 C 181.891 218.706,184.299 216.526,186.531 214.336 C 188.764 212.147,191.436 209.728,192.469 208.960 C 193.502 208.193,196.464 205.447,199.051 202.860 C 201.639 200.272,203.934 198.155,204.153 198.155 C 204.372 198.155,207.637 195.104,211.408 191.375 C 215.180 187.646,218.764 184.336,219.373 184.019 C 220.847 183.251,252.002 151.988,253.641 149.631 C 258.369 142.832,259.484 141.000,260.023 139.145 C 260.352 138.012,260.849 136.737,261.128 136.312 C 262.270 134.567,263.469 130.790,263.469 128.938 C 263.469 124.963,261.082 123.986,251.372 123.985 C 246.210 123.985,244.315 123.855,243.301 123.432 C 242.189 122.967,239.259 122.878,225.030 122.878 L 208.085 122.878 207.179 121.972 C 206.681 121.474,206.271 120.769,206.269 120.404 C 206.266 120.040,205.851 119.019,205.346 118.136 C 204.376 116.439,202.217 110.355,202.210 109.296 C 202.207 108.953,201.803 107.968,201.311 107.107 C 200.819 106.247,199.978 104.254,199.443 102.679 C 195.055 89.769,192.494 86.872,187.928 89.656 C 186.256 90.676,181.947 100.222,181.906 102.998 C 181.899 103.480,181.061 106.282,180.044 109.225 C 177.799 115.720,176.425 120.043,176.054 121.777 C 175.901 122.490,175.349 124.234,174.827 125.651 C 173.326 129.723,170.510 138.767,170.175 140.590 C 170.008 141.504,169.198 144.077,168.375 146.310 C 166.015 152.719,164.209 158.253,163.500 161.255 C 162.208 166.719,160.250 171.696,159.239 172.084 C 158.284 172.450,156.101 167.628,156.091 165.128 C 156.090 164.722,155.420 162.646,154.602 160.516 C 153.785 158.385,152.797 155.480,152.407 154.059 C 150.353 146.584,149.051 142.367,147.530 138.264 C 146.717 136.071,145.823 133.181,145.543 131.841 C 145.262 130.502,144.349 127.596,143.514 125.385 C 142.678 123.174,141.693 120.003,141.325 118.339 C 139.748 111.215,135.824 101.664,133.661 99.685 C 130.655 96.935,127.258 101.052,123.204 112.362 C 122.404 114.594,121.428 117.251,121.036 118.266 C 119.514 122.206,117.980 126.509,117.089 129.336 C 115.587 134.105,115.977 133.948,105.645 133.948 C 93.205 133.948,91.185 134.788,91.600 139.790 C 91.925 143.705,92.755 143.907,108.525 143.909 C 122.484 143.912,122.623 143.885,124.057 140.948 C 124.400 140.244,125.120 138.772,125.657 137.676 C 126.193 136.581,126.921 134.584,127.274 133.239 C 128.015 130.416,130.169 125.841,130.886 125.566 C 131.799 125.216,132.425 126.245,133.586 130.008 C 134.224 132.074,134.981 134.390,135.269 135.155 C 135.558 135.920,135.793 136.825,135.793 137.166 C 135.793 137.507,136.280 139.123,136.875 140.756 C 137.470 142.390,138.375 145.138,138.886 146.863 C 139.397 148.589,140.257 151.494,140.797 153.321 C 141.338 155.148,142.239 158.054,142.800 159.779 C 143.361 161.504,144.082 163.828,144.403 164.945 C 144.725 166.061,145.506 168.552,146.140 170.480 C 146.774 172.408,147.462 174.566,147.670 175.277 C 149.511 181.581,150.021 183.216,150.954 185.793 C 151.542 187.417,152.267 189.709,152.565 190.886 C 153.572 194.871,156.715 198.893,158.822 198.893 C 161.570 198.893,163.642 196.033,165.719 189.377 C 166.334 187.406,167.567 183.801,168.460 181.365 C 169.352 178.930,170.340 175.941,170.654 174.723 C 170.968 173.506,171.640 171.422,172.147 170.094 C 172.655 168.765,173.301 166.574,173.583 165.225 C 173.865 163.875,174.755 160.977,175.560 158.784 C 177.920 152.359,180.823 143.549,181.435 140.959 C 181.747 139.640,182.460 137.232,183.021 135.609 C 183.582 133.985,184.623 130.913,185.333 128.782 C 186.044 126.651,186.967 123.911,187.385 122.694 C 187.804 121.476,188.414 119.256,188.742 117.761 C 189.854 112.694,191.603 111.875,192.787 115.867 C 192.938 116.375,193.735 118.616,194.559 120.849 C 195.383 123.081,196.427 125.936,196.879 127.193 C 198.973 133.019,200.649 133.948,209.063 133.948 C 213.313 133.948,215.124 134.091,216.109 134.502 C 217.213 134.963,219.957 135.055,232.631 135.055 C 250.627 135.055,249.762 134.866,248.011 138.422 C 247.367 139.730,246.162 141.542,245.332 142.448 C 244.502 143.354,243.359 144.760,242.792 145.572 C 241.397 147.568,216.871 171.956,216.258 171.956 C 215.991 171.956,213.095 174.634,209.823 177.908 C 206.552 181.182,202.961 184.532,201.845 185.353 C 200.729 186.175,197.609 189.059,194.912 191.763 C 192.215 194.467,189.835 196.679,189.623 196.679 C 189.411 196.679,186.359 199.502,182.841 202.952 C 179.323 206.402,176.239 209.225,175.987 209.225 C 175.736 209.225,173.605 211.110,171.252 213.414 C 168.899 215.718,166.192 218.130,165.235 218.773 C 164.279 219.416,163.365 220.166,163.206 220.438 C 163.046 220.710,162.116 221.619,161.140 222.459 C 158.315 224.888,158.042 224.787,152.356 219.188 C 149.677 216.550,147.285 214.391,147.040 214.391 C 146.796 214.391,144.189 212.010,141.247 209.099 C 138.305 206.189,135.252 203.334,134.462 202.756 C 133.672 202.178,130.606 199.328,127.648 196.424 C 124.690 193.520,122.058 191.144,121.801 191.144 C 121.543 191.144,118.234 188.106,114.448 184.393 C 110.662 180.680,106.900 177.157,106.089 176.564 C 104.052 175.075,72.564 143.515,71.402 141.796 C 70.884 141.031,69.714 139.410,68.801 138.192 C 66.487 135.106,63.995 130.097,63.273 127.081 C 62.939 125.683,62.430 123.792,62.142 122.878 C 61.379 120.452,61.405 106.772,62.177 104.925 C 62.482 104.196,62.731 102.914,62.731 102.077 C 62.731 99.037,65.021 91.085,66.910 87.569 C 70.448 80.982,79.234 70.504,82.873 68.534 C 83.262 68.323,84.784 67.349,86.255 66.368 C 89.071 64.491,93.276 62.267,94.834 61.831 C 96.665 61.318,102.065 59.710,103.690 59.195 C 104.603 58.905,106.534 58.669,107.981 58.670 C 109.488 58.671,111.177 58.435,111.936 58.118 C 112.664 57.814,113.935 57.565,114.760 57.565 C 115.585 57.565,116.856 57.814,117.585 58.118 C 118.344 58.435,120.032 58.671,121.540 58.670 C 122.986 58.669,124.917 58.905,125.830 59.195 C 127.455 59.710,132.856 61.318,134.686 61.831 C 136.010 62.202,140.579 64.512,141.882 65.470 C 142.491 65.917,144.280 67.082,145.859 68.057 C 147.438 69.033,148.932 70.115,149.180 70.462 C 149.428 70.808,150.129 71.403,150.738 71.783 C 151.347 72.163,152.563 73.119,153.441 73.908 C 154.318 74.697,155.776 75.670,156.681 76.070 L 158.325 76.797 160.354 75.770 C 161.470 75.205,162.935 74.222,163.611 73.585 C 165.000 72.274,168.346 69.677,170.553 68.196 C 171.366 67.651,172.324 66.940,172.682 66.616 C 173.498 65.877,180.377 62.489,182.841 61.611 C 189.374 59.284,191.551 58.668,193.221 58.670 C 194.058 58.671,195.340 58.423,196.069 58.118 C 197.008 57.726,198.743 57.565,202.030 57.565 C 205.316 57.565,207.051 57.726,207.990 58.118 C 208.719 58.423,210.022 58.672,210.887 58.672 C 211.751 58.672,213.599 59.103,214.993 59.631 C 216.387 60.159,218.607 60.876,219.926 61.225 C 226.972 63.091,238.671 71.371,242.907 77.491 C 243.539 78.404,244.254 79.317,244.495 79.520 C 245.892 80.694,252.399 92.257,252.399 93.564 C 252.399 95.813,255.901 103.574,257.225 104.259 C 261.721 106.584,264.391 103.976,264.125 97.518 C 263.854 90.915,256.216 74.720,251.286 70.295 C 250.834 69.889,249.815 68.604,249.021 67.439 C 248.228 66.274,247.066 65.056,246.439 64.732 C 245.813 64.407,244.251 63.202,242.970 62.053 C 240.004 59.392,239.176 58.781,235.793 56.751 C 231.030 53.894,221.959 49.813,220.380 49.817 C 220.029 49.818,218.994 49.585,218.081 49.298 C 213.889 47.983,212.133 47.611,209.041 47.383 C 201.657 46.837,192.475 47.221,189.937 48.182 C 189.172 48.471,188.061 48.708,187.469 48.708 C 185.993 48.708,180.740 50.358,178.007 51.679 C 176.769 52.278,175.523 52.771,175.239 52.776 C 174.956 52.781,173.940 53.238,172.983 53.791 C 168.302 56.496,165.290 58.362,163.804 59.476 C 159.088 63.011,158.290 63.050,153.832 59.966 C 151.927 58.649,148.127 56.432,145.387 55.040 C 142.648 53.648,139.659 52.071,138.745 51.536 C 137.832 51.000,136.670 50.561,136.162 50.560 C 135.352 50.557,132.991 49.922,127.860 48.326 C 124.899 47.405,111.446 46.587,109.594 47.215 M299.857 255.752 C 306.584 258.279,307.283 258.710,311.325 262.816 C 315.134 266.687,319.557 274.079,319.557 276.574 C 319.557 277.028,319.806 277.997,320.111 278.725 C 322.299 283.963,319.416 298.506,315.227 303.359 C 314.632 304.048,313.827 305.162,313.438 305.834 C 312.233 307.916,302.818 313.642,300.573 313.659 C 300.156 313.662,299.169 313.889,298.380 314.164 C 295.701 315.096,295.572 314.900,295.572 309.892 C 295.572 304.712,295.524 304.790,300.635 301.726 C 307.068 297.869,311.560 289.170,310.007 283.577 C 309.782 282.767,309.597 281.536,309.596 280.843 C 309.593 279.158,306.300 272.985,304.304 270.923 C 296.973 263.351,285.084 263.524,276.906 271.321 C 272.363 275.652,271.218 278.508,271.218 285.505 C 271.218 293.678,274.145 298.328,281.873 302.435 C 284.716 303.945,284.933 304.411,284.631 308.337 C 284.324 312.343,283.240 313.904,281.020 313.544 C 278.436 313.125,272.297 309.067,268.762 305.441 C 264.642 301.216,263.615 299.216,260.658 289.668 C 259.991 287.513,259.988 281.268,260.653 279.436 C 260.931 278.670,261.538 276.799,262.002 275.277 C 264.343 267.605,269.989 260.611,276.365 257.488 C 282.843 254.315,282.911 254.298,289.710 254.270 L 295.841 254.244 299.857 255.752 M294.301 276.972 C 300.980 280.141,300.524 289.772,293.542 293.023 C 288.860 295.204,282.288 290.558,282.288 285.068 C 282.288 278.526,288.605 274.269,294.301 276.972 " stroke="none" fill="#000000" fill-rule="evenodd"></path><path id="path1" d="M0.000 187.823 L 0.000 375.646 200.000 375.646 L 400.000 375.646 400.000 187.823 L 400.000 0.000 200.000 0.000 L 0.000 0.000 0.000 187.823 M272.862 20.458 C 277.716 23.326,279.956 27.086,280.434 33.171 C 280.776 37.519,280.955 37.638,287.102 37.638 C 294.624 37.638,295.194 38.200,295.715 46.125 C 296.629 60.034,295.947 156.050,294.917 158.419 C 294.668 158.990,294.465 160.672,294.465 162.156 C 294.465 163.720,294.232 165.412,293.911 166.179 C 293.607 166.908,293.358 168.101,293.358 168.832 C 293.358 169.562,293.194 170.465,292.994 170.839 C 292.794 171.212,292.371 172.903,292.054 174.597 C 291.509 177.506,290.670 180.771,290.018 182.519 C 289.857 182.951,289.444 184.445,289.101 185.840 C 288.758 187.235,288.093 189.124,287.625 190.037 C 287.156 190.950,286.074 193.358,285.222 195.387 C 282.417 202.064,280.349 206.438,279.380 207.745 C 278.855 208.453,277.991 209.947,277.459 211.066 C 276.364 213.370,270.765 222.028,269.105 223.985 C 268.503 224.696,267.702 225.775,267.326 226.384 C 266.950 226.993,265.928 228.272,265.055 229.228 C 264.183 230.183,263.469 231.125,263.469 231.320 C 263.469 231.948,247.145 247.978,244.373 250.073 C 242.901 251.185,241.697 252.210,241.697 252.352 C 241.697 252.493,241.158 252.917,240.498 253.294 C 239.839 253.671,238.866 254.379,238.336 254.869 C 237.806 255.358,236.297 256.455,234.983 257.307 C 233.668 258.159,231.330 259.686,229.787 260.701 C 226.263 263.019,220.683 266.228,216.605 268.282 C 213.696 269.746,211.586 270.615,206.798 272.317 C 205.767 272.683,204.237 273.333,203.399 273.761 C 202.560 274.189,201.539 274.539,201.129 274.539 C 200.719 274.539,199.758 274.774,198.993 275.062 C 198.228 275.350,196.107 276.020,194.280 276.552 C 186.774 278.738,186.990 278.693,181.181 279.293 C 179.659 279.451,178.051 279.774,177.607 280.011 C 177.146 280.258,175.220 280.443,173.101 280.443 C 168.925 280.443,166.117 281.253,164.668 282.875 C 163.594 284.078,163.362 302.944,164.391 305.407 C 164.696 306.136,164.945 307.714,164.945 308.913 C 164.945 310.112,165.194 311.690,165.498 312.419 C 165.803 313.147,166.052 314.129,166.052 314.600 C 166.052 317.274,172.219 331.277,174.493 333.764 C 175.049 334.373,175.986 335.535,176.575 336.347 C 178.520 339.030,185.019 345.179,187.456 346.642 C 188.774 347.434,190.185 348.375,190.590 348.735 C 191.628 349.654,199.845 353.788,201.845 354.397 C 202.758 354.675,204.646 355.335,206.040 355.864 C 207.434 356.394,209.147 356.827,209.847 356.827 C 210.546 356.827,211.474 357.017,211.909 357.250 C 214.816 358.805,234.641 358.814,237.522 357.261 C 237.965 357.022,238.795 356.824,239.367 356.821 C 247.299 356.780,267.651 344.171,273.010 335.978 C 273.541 335.166,274.748 333.423,275.692 332.103 C 279.327 327.025,279.477 324.564,276.199 323.777 C 265.901 321.302,253.093 307.052,251.307 296.080 C 251.137 295.041,250.816 293.848,250.592 293.429 C 249.946 292.224,250.055 279.290,250.728 277.171 C 251.027 276.231,251.698 273.967,252.220 272.140 C 253.328 268.259,255.508 263.538,257.763 260.135 C 259.284 257.839,266.375 250.554,267.088 250.554 C 267.274 250.554,268.072 250.033,268.861 249.396 C 270.217 248.302,274.041 246.360,277.306 245.108 C 279.464 244.280,282.516 243.896,288.725 243.672 C 295.298 243.434,296.288 243.583,305.166 246.159 C 308.320 247.074,312.837 249.375,314.800 251.067 C 315.532 251.698,317.056 252.910,318.188 253.761 C 320.127 255.219,321.490 256.937,324.234 261.385 C 324.879 262.430,325.769 263.748,326.213 264.315 C 327.159 265.524,328.782 269.721,330.023 274.170 C 332.095 281.597,331.421 293.589,328.549 300.415 C 328.068 301.557,327.675 302.686,327.675 302.924 C 327.675 305.694,319.910 315.447,315.329 318.430 C 314.103 319.229,312.650 320.231,312.100 320.658 C 311.551 321.084,310.234 321.690,309.175 322.005 C 308.116 322.319,306.394 323.060,305.348 323.650 C 304.223 324.285,302.902 324.723,302.116 324.723 C 301.385 324.723,300.319 324.918,299.747 325.156 C 299.176 325.394,297.342 325.694,295.671 325.823 C 292.205 326.090,291.552 326.504,290.037 329.396 C 287.464 334.306,282.869 341.276,280.166 344.370 C 279.101 345.590,278.229 346.732,278.229 346.909 C 278.229 347.488,275.605 350.150,274.226 350.970 C 273.485 351.412,272.048 352.548,271.033 353.495 C 270.018 354.443,268.836 355.455,268.406 355.746 C 267.976 356.036,266.584 356.986,265.313 357.857 C 259.133 362.091,249.955 365.718,242.777 366.763 C 241.646 366.928,240.370 367.250,239.942 367.480 C 239.513 367.709,237.901 367.897,236.359 367.897 C 234.702 367.897,233.014 368.123,232.231 368.450 C 230.330 369.244,218.009 369.244,216.109 368.450 C 215.350 368.133,213.656 367.897,212.146 367.897 C 210.696 367.897,208.656 367.630,207.614 367.303 C 204.362 366.285,202.475 365.777,200.217 365.313 C 199.018 365.067,196.859 364.367,195.420 363.758 C 193.982 363.149,191.734 362.258,190.425 361.778 C 189.117 361.299,187.373 360.431,186.551 359.851 C 185.728 359.271,184.281 358.428,183.336 357.979 C 182.390 357.529,181.524 356.922,181.411 356.629 C 181.299 356.336,180.300 355.516,179.192 354.807 C 169.579 348.658,157.839 329.705,156.119 317.557 C 155.936 316.263,155.605 314.866,155.384 314.453 C 155.163 314.040,154.982 312.855,154.982 311.821 C 154.982 310.786,154.732 309.343,154.428 308.615 C 154.062 307.740,153.875 306.049,153.875 303.633 C 153.875 301.217,153.687 299.527,153.321 298.652 C 152.894 297.629,152.768 295.698,152.768 290.176 C 152.768 281.223,152.961 281.550,147.647 281.550 C 145.241 281.550,143.551 281.362,142.677 280.996 C 141.904 280.673,140.214 280.443,138.618 280.443 C 137.022 280.443,135.332 280.212,134.559 279.889 C 133.830 279.585,132.577 279.336,131.774 279.336 C 130.182 279.336,127.129 278.788,125.092 278.136 C 124.382 277.909,123.054 277.601,122.140 277.451 C 119.591 277.034,114.584 275.521,110.701 273.997 C 108.773 273.239,106.448 272.363,105.535 272.049 C 100.872 270.447,81.683 260.350,80.428 258.839 C 80.184 258.544,79.786 258.303,79.545 258.303 C 79.304 258.303,78.271 257.597,77.250 256.734 C 76.229 255.872,74.673 254.751,73.793 254.244 C 72.913 253.736,71.102 252.317,69.768 251.090 C 68.434 249.864,66.679 248.386,65.867 247.806 C 64.025 246.492,49.446 231.884,49.446 231.354 C 49.446 231.140,48.712 230.180,47.815 229.220 C 46.196 227.489,45.592 226.680,41.448 220.697 C 38.155 215.940,37.445 214.826,35.549 211.439 C 34.584 209.714,33.436 207.773,32.998 207.125 C 32.561 206.478,31.504 204.319,30.649 202.328 C 29.794 200.337,28.705 197.961,28.229 197.048 C 27.170 195.017,23.317 184.174,21.936 179.336 C 20.551 174.488,20.306 173.477,19.924 171.033 C 19.702 169.613,19.343 167.786,19.126 166.974 C 18.910 166.162,18.622 163.755,18.487 161.624 C 18.352 159.493,18.039 157.386,17.792 156.943 C 17.445 156.320,17.343 143.440,17.343 100.166 C 17.343 40.476,17.248 44.195,18.902 39.439 C 19.434 37.907,20.583 37.638,26.586 37.638 C 33.183 37.638,33.579 37.446,33.579 34.247 C 33.579 27.832,36.267 22.858,41.039 20.440 C 43.463 19.211,48.959 19.155,50.923 20.338 C 54.860 22.712,57.554 26.181,57.561 28.886 C 57.563 29.654,57.814 30.878,58.118 31.607 C 59.072 33.889,58.919 54.884,57.930 57.486 C 56.505 61.234,54.863 62.952,50.664 65.083 C 48.652 66.104,43.305 65.910,40.803 64.725 C 36.795 62.828,33.581 57.004,33.580 51.639 C 33.579 49.936,32.942 49.106,31.355 48.745 C 30.651 48.585,29.718 48.339,29.282 48.199 C 27.214 47.536,27.306 45.739,27.306 86.754 C 27.306 119.363,27.380 124.555,27.860 125.703 C 28.325 126.816,28.413 129.771,28.411 144.233 C 28.410 157.927,28.515 161.778,28.925 163.100 C 29.208 164.013,29.707 165.613,30.034 166.655 C 30.360 167.697,30.627 168.859,30.626 169.238 C 30.625 169.616,31.048 171.338,31.567 173.063 C 32.086 174.788,32.929 177.611,33.441 179.336 C 34.757 183.773,35.781 186.629,36.777 188.641 C 37.251 189.598,37.638 190.596,37.638 190.859 C 37.638 191.531,45.270 206.880,46.495 208.672 C 47.049 209.483,47.958 210.953,48.513 211.938 C 49.068 212.923,49.849 214.056,50.250 214.457 C 50.651 214.857,51.569 216.193,52.291 217.424 C 53.012 218.655,54.132 220.262,54.779 220.994 C 55.425 221.726,56.306 222.906,56.736 223.616 C 57.670 225.161,72.765 240.221,73.379 240.221 C 73.614 240.221,74.786 241.093,75.983 242.159 C 77.180 243.224,79.211 244.760,80.497 245.572 C 81.782 246.384,83.417 247.556,84.129 248.177 C 87.132 250.795,104.215 260.164,109.041 261.839 C 110.258 262.261,112.417 263.035,113.838 263.558 C 118.833 265.397,125.754 267.528,126.734 267.528 C 127.278 267.528,128.020 267.686,128.383 267.880 C 129.375 268.412,134.295 269.372,136.025 269.372 C 136.863 269.373,138.144 269.622,138.873 269.926 C 139.818 270.321,141.562 270.480,144.962 270.480 C 148.361 270.480,150.105 270.638,151.050 271.033 C 152.806 271.767,157.895 271.767,159.651 271.033 C 160.595 270.639,162.336 270.480,165.704 270.480 C 168.455 270.480,170.866 270.300,171.470 270.051 C 172.042 269.815,173.672 269.493,175.092 269.335 C 179.089 268.890,182.363 268.355,183.579 267.947 C 184.188 267.742,185.268 267.417,185.978 267.223 C 186.688 267.030,188.266 266.534,189.483 266.121 C 190.701 265.708,192.611 265.176,193.727 264.937 C 194.843 264.699,196.570 264.091,197.563 263.585 C 198.557 263.080,200.467 262.378,201.807 262.025 C 203.147 261.672,206.651 260.158,209.594 258.660 C 212.537 257.163,216.572 255.135,218.560 254.154 C 222.190 252.364,224.718 250.811,229.933 247.167 C 236.319 242.704,237.133 242.092,238.192 240.955 C 238.801 240.302,240.173 239.115,241.242 238.317 C 244.172 236.132,252.428 227.761,254.604 224.770 C 255.660 223.318,256.845 221.959,257.238 221.748 C 257.631 221.538,258.892 219.921,260.040 218.155 C 261.188 216.389,262.327 214.779,262.571 214.576 C 263.390 213.896,265.817 210.170,266.897 207.934 C 267.486 206.716,268.375 205.180,268.874 204.519 C 269.976 203.060,274.798 193.397,275.131 191.978 C 275.263 191.418,275.758 190.212,276.231 189.299 C 277.960 185.962,281.149 175.804,281.170 173.569 C 281.176 172.934,281.430 171.819,281.734 171.090 C 282.039 170.362,282.288 168.950,282.288 167.954 C 282.288 166.957,282.537 165.546,282.841 164.817 C 283.209 163.936,283.395 162.244,283.395 159.766 C 283.395 157.461,283.571 155.733,283.856 155.234 C 285.057 153.135,285.626 49.674,284.443 48.491 C 282.361 46.410,280.704 48.136,280.422 52.679 C 279.882 61.385,275.891 65.683,268.345 65.683 C 261.189 65.683,256.617 61.755,255.889 54.982 C 255.490 51.274,255.523 35.117,255.940 30.176 L 256.273 26.220 258.672 23.783 C 263.189 19.192,268.582 17.929,272.862 20.458 M44.884 33.077 C 44.097 38.821,44.897 52.055,46.104 53.263 C 47.754 54.913,48.335 38.830,46.799 34.047 C 45.806 30.957,45.216 30.658,44.884 33.077 M266.754 32.380 C 266.508 33.027,266.437 35.939,266.560 40.406 C 266.878 51.993,267.450 55.232,268.844 53.343 C 269.391 52.602,269.666 33.296,269.149 31.949 C 268.765 30.949,267.191 31.232,266.754 32.380 M123.247 47.546 C 124.972 47.722,127.048 48.073,127.860 48.326 C 132.991 49.922,135.352 50.557,136.162 50.560 C 136.670 50.561,137.832 51.000,138.745 51.536 C 139.659 52.071,142.648 53.648,145.387 55.040 C 148.127 56.432,151.927 58.649,153.832 59.966 C 158.290 63.050,159.088 63.011,163.804 59.476 C 165.290 58.362,168.302 56.496,172.983 53.791 C 173.940 53.238,174.956 52.781,175.239 52.776 C 175.523 52.771,176.769 52.278,178.007 51.679 C 180.740 50.358,185.993 48.708,187.469 48.708 C 188.061 48.708,189.172 48.471,189.937 48.182 C 192.475 47.221,201.657 46.837,209.041 47.383 C 212.133 47.611,213.889 47.983,218.081 49.298 C 218.994 49.585,220.029 49.818,220.380 49.817 C 221.959 49.813,231.030 53.894,235.793 56.751 C 239.176 58.781,240.004 59.392,242.970 62.053 C 244.251 63.202,245.813 64.407,246.439 64.732 C 247.066 65.056,248.228 66.274,249.021 67.439 C 249.815 68.604,250.834 69.889,251.286 70.295 C 256.216 74.720,263.854 90.915,264.125 97.518 C 264.391 103.976,261.721 106.584,257.225 104.259 C 255.901 103.574,252.399 95.813,252.399 93.564 C 252.399 92.257,245.892 80.694,244.495 79.520 C 244.254 79.317,243.539 78.404,242.907 77.491 C 238.671 71.371,226.972 63.091,219.926 61.225 C 218.607 60.876,216.387 60.159,214.993 59.631 C 213.599 59.103,211.751 58.672,210.887 58.672 C 210.022 58.672,208.719 58.423,207.990 58.118 C 207.051 57.726,205.316 57.565,202.030 57.565 C 198.743 57.565,197.008 57.726,196.069 58.118 C 195.340 58.423,194.058 58.671,193.221 58.670 C 191.551 58.668,189.374 59.284,182.841 61.611 C 180.377 62.489,173.498 65.877,172.682 66.616 C 172.324 66.940,171.366 67.651,170.553 68.196 C 168.346 69.677,165.000 72.274,163.611 73.585 C 162.935 74.222,161.470 75.205,160.354 75.770 L 158.325 76.797 156.681 76.070 C 155.776 75.670,154.318 74.697,153.441 73.908 C 152.563 73.119,151.347 72.163,150.738 71.783 C 150.129 71.403,149.428 70.808,149.180 70.462 C 148.932 70.115,147.438 69.033,145.859 68.057 C 144.280 67.082,142.491 65.917,141.882 65.470 C 140.579 64.512,136.010 62.202,134.686 61.831 C 132.856 61.318,127.455 59.710,125.830 59.195 C 124.917 58.905,122.986 58.669,121.540 58.670 C 120.032 58.671,118.344 58.435,117.585 58.118 C 116.856 57.814,115.585 57.565,114.760 57.565 C 113.935 57.565,112.664 57.814,111.936 58.118 C 111.177 58.435,109.488 58.671,107.981 58.670 C 106.534 58.669,104.603 58.905,103.690 59.195 C 102.065 59.710,96.665 61.318,94.834 61.831 C 93.276 62.267,89.071 64.491,86.255 66.368 C 84.784 67.349,83.262 68.323,82.873 68.534 C 79.234 70.504,70.448 80.982,66.910 87.569 C 65.021 91.085,62.731 99.037,62.731 102.077 C 62.731 102.914,62.482 104.196,62.177 104.925 C 61.405 106.772,61.379 120.452,62.142 122.878 C 62.430 123.792,62.939 125.683,63.273 127.081 C 63.995 130.097,66.487 135.106,68.801 138.192 C 69.714 139.410,70.884 141.031,71.402 141.796 C 72.564 143.515,104.052 175.075,106.089 176.564 C 106.900 177.157,110.662 180.680,114.448 184.393 C 118.234 188.106,121.543 191.144,121.801 191.144 C 122.058 191.144,124.690 193.520,127.648 196.424 C 130.606 199.328,133.672 202.178,134.462 202.756 C 135.252 203.334,138.305 206.189,141.247 209.099 C 144.189 212.010,146.796 214.391,147.040 214.391 C 147.285 214.391,149.677 216.550,152.356 219.188 C 158.042 224.787,158.315 224.888,161.140 222.459 C 162.116 221.619,163.046 220.710,163.206 220.438 C 163.365 220.166,164.279 219.416,165.235 218.773 C 166.192 218.130,168.899 215.718,171.252 213.414 C 173.605 211.110,175.736 209.225,175.987 209.225 C 176.239 209.225,179.323 206.402,182.841 202.952 C 186.359 199.502,189.411 196.679,189.623 196.679 C 189.835 196.679,192.215 194.467,194.912 191.763 C 197.609 189.059,200.729 186.175,201.845 185.353 C 202.961 184.532,206.552 181.182,209.823 177.908 C 213.095 174.634,215.991 171.956,216.258 171.956 C 216.871 171.956,241.397 147.568,242.792 145.572 C 243.359 144.760,244.502 143.354,245.332 142.448 C 246.162 141.542,247.367 139.730,248.011 138.422 C 249.762 134.866,250.627 135.055,232.631 135.055 C 219.957 135.055,217.213 134.963,216.109 134.502 C 215.124 134.091,213.313 133.948,209.063 133.948 C 200.649 133.948,198.973 133.019,196.879 127.193 C 196.427 125.936,195.383 123.081,194.559 120.849 C 193.735 118.616,192.938 116.375,192.787 115.867 C 191.603 111.875,189.854 112.694,188.742 117.761 C 188.414 119.256,187.804 121.476,187.385 122.694 C 186.967 123.911,186.044 126.651,185.333 128.782 C 184.623 130.913,183.582 133.985,183.021 135.609 C 182.460 137.232,181.747 139.640,181.435 140.959 C 180.823 143.549,177.920 152.359,175.560 158.784 C 174.755 160.977,173.865 163.875,173.583 165.225 C 173.301 166.574,172.655 168.765,172.147 170.094 C 171.640 171.422,170.968 173.506,170.654 174.723 C 170.340 175.941,169.352 178.930,168.460 181.365 C 167.567 183.801,166.334 187.406,165.719 189.377 C 163.642 196.033,161.570 198.893,158.822 198.893 C 156.715 198.893,153.572 194.871,152.565 190.886 C 152.267 189.709,151.542 187.417,150.954 185.793 C 150.021 183.216,149.511 181.581,147.670 175.277 C 147.462 174.566,146.774 172.408,146.140 170.480 C 145.506 168.552,144.725 166.061,144.403 164.945 C 144.082 163.828,143.361 161.504,142.800 159.779 C 142.239 158.054,141.338 155.148,140.797 153.321 C 140.257 151.494,139.397 148.589,138.886 146.863 C 138.375 145.138,137.470 142.390,136.875 140.756 C 136.280 139.123,135.793 137.507,135.793 137.166 C 135.793 136.825,135.558 135.920,135.269 135.155 C 134.981 134.390,134.224 132.074,133.586 130.008 C 132.425 126.245,131.799 125.216,130.886 125.566 C 130.169 125.841,128.015 130.416,127.274 133.239 C 126.921 134.584,126.193 136.581,125.657 137.676 C 125.120 138.772,124.400 140.244,124.057 140.948 C 122.623 143.885,122.484 143.912,108.525 143.909 C 92.755 143.907,91.925 143.705,91.600 139.790 C 91.185 134.788,93.205 133.948,105.645 133.948 C 115.977 133.948,115.587 134.105,117.089 129.336 C 117.980 126.509,119.514 122.206,121.036 118.266 C 121.428 117.251,122.404 114.594,123.204 112.362 C 127.258 101.052,130.655 96.935,133.661 99.685 C 135.824 101.664,139.748 111.215,141.325 118.339 C 141.693 120.003,142.678 123.174,143.514 125.385 C 144.349 127.596,145.262 130.502,145.543 131.841 C 145.823 133.181,146.717 136.071,147.530 138.264 C 149.051 142.367,150.353 146.584,152.407 154.059 C 152.797 155.480,153.785 158.385,154.602 160.516 C 155.420 162.646,156.090 164.722,156.091 165.128 C 156.101 167.628,158.284 172.450,159.239 172.084 C 160.250 171.696,162.208 166.719,163.500 161.255 C 164.209 158.253,166.015 152.719,168.375 146.310 C 169.198 144.077,170.008 141.504,170.175 140.590 C 170.510 138.767,173.326 129.723,174.827 125.651 C 175.349 124.234,175.901 122.490,176.054 121.777 C 176.425 120.043,177.799 115.720,180.044 109.225 C 181.061 106.282,181.899 103.480,181.906 102.998 C 181.947 100.222,186.256 90.676,187.928 89.656 C 192.494 86.872,195.055 89.769,199.443 102.679 C 199.978 104.254,200.819 106.247,201.311 107.107 C 201.803 107.968,202.207 108.953,202.210 109.296 C 202.217 110.355,204.376 116.439,205.346 118.136 C 205.851 119.019,206.266 120.040,206.269 120.404 C 206.271 120.769,206.681 121.474,207.179 121.972 L 208.085 122.878 225.030 122.878 C 239.259 122.878,242.189 122.967,243.301 123.432 C 244.315 123.855,246.210 123.985,251.372 123.985 C 261.082 123.986,263.469 124.963,263.469 128.938 C 263.469 130.790,262.270 134.567,261.128 136.312 C 260.849 136.737,260.352 138.012,260.023 139.145 C 259.484 141.000,258.369 142.832,253.641 149.631 C 252.002 151.988,220.847 183.251,219.373 184.019 C 218.764 184.336,215.180 187.646,211.408 191.375 C 207.637 195.104,204.372 198.155,204.153 198.155 C 203.934 198.155,201.639 200.272,199.051 202.860 C 196.464 205.447,193.502 208.193,192.469 208.960 C 191.436 209.728,188.764 212.147,186.531 214.336 C 184.299 216.526,181.891 218.706,181.181 219.182 C 180.470 219.658,178.205 221.639,176.147 223.584 C 172.206 227.309,167.459 231.387,165.535 232.700 C 164.906 233.130,163.721 234.151,162.902 234.971 C 160.986 236.887,158.764 237.563,156.856 236.811 C 155.353 236.219,149.492 231.913,149.219 231.201 C 149.120 230.943,147.908 229.889,146.527 228.858 C 145.146 227.828,140.691 223.653,136.628 219.581 C 132.565 215.509,129.029 212.177,128.771 212.177 C 128.513 212.177,125.695 209.603,122.509 206.458 C 119.323 203.312,116.514 200.738,116.267 200.738 C 116.019 200.738,113.369 198.323,110.377 195.371 C 107.386 192.419,104.427 189.693,103.802 189.313 C 103.178 188.933,100.365 186.341,97.551 183.553 C 94.737 180.765,91.771 178.001,90.959 177.410 C 87.555 174.934,63.882 150.887,61.851 147.841 C 56.491 139.803,51.661 127.299,51.661 121.460 C 51.661 120.401,51.411 118.937,51.107 118.209 C 50.413 116.548,50.314 106.303,50.980 105.059 C 51.214 104.622,51.542 103.096,51.708 101.670 C 52.656 93.529,53.279 91.534,57.591 82.841 C 61.249 75.467,72.709 61.255,74.997 61.255 C 75.160 61.255,76.059 60.549,76.994 59.686 C 79.327 57.535,79.698 57.319,90.959 51.544 C 93.005 50.495,97.325 49.177,100.230 48.716 C 101.269 48.551,102.462 48.233,102.881 48.009 C 103.299 47.785,104.773 47.585,106.157 47.565 C 107.540 47.544,109.087 47.387,109.594 47.215 C 110.627 46.865,118.448 47.054,123.247 47.546 M281.550 255.119 C 270.979 259.408,264.945 265.630,262.002 275.277 C 261.538 276.799,260.931 278.670,260.653 279.436 C 259.988 281.268,259.991 287.513,260.658 289.668 C 263.615 299.216,264.642 301.216,268.762 305.441 C 272.297 309.067,278.436 313.125,281.020 313.544 C 283.240 313.904,284.324 312.343,284.631 308.337 C 284.933 304.411,284.716 303.945,281.873 302.435 C 274.145 298.328,271.218 293.678,271.218 285.505 C 271.218 278.508,272.363 275.652,276.906 271.321 C 285.084 263.524,296.973 263.351,304.304 270.923 C 306.300 272.985,309.593 279.158,309.596 280.843 C 309.597 281.536,309.782 282.767,310.007 283.577 C 311.560 289.170,307.068 297.869,300.635 301.726 C 295.524 304.790,295.572 304.712,295.572 309.892 C 295.572 314.900,295.701 315.096,298.380 314.164 C 299.169 313.889,300.156 313.662,300.573 313.659 C 302.818 313.642,312.233 307.916,313.438 305.834 C 313.827 305.162,314.632 304.048,315.227 303.359 C 319.416 298.506,322.299 283.963,320.111 278.725 C 319.806 277.997,319.557 277.028,319.557 276.574 C 319.557 274.079,315.134 266.687,311.325 262.816 C 307.283 258.710,306.584 258.279,299.857 255.752 L 295.841 254.244 289.710 254.270 C 284.256 254.293,283.355 254.386,281.550 255.119 M286.482 277.092 C 280.409 280.795,281.012 289.342,287.577 292.623 C 295.865 296.765,303.150 285.169,296.462 278.482 C 294.277 276.296,288.993 275.560,286.482 277.092 " stroke="none" fill="#ffffff" fill-rule="evenodd"></path></g></svg>